<mxfile host="Electron" modified="2023-10-04T00:46:12.233Z" agent="Mozilla/5.0 (Macintosh; Intel Mac OS X 10_15_7) AppleWebKit/537.36 (KHTML, like Gecko) draw.io/22.0.0 Chrome/114.0.5735.289 Electron/25.8.3 Safari/537.36" etag="cO4YXbM7k7eD6fJ7pADJ" version="22.0.0" type="device">
  <diagram name="Page-1" id="RcsFwqiE_mqMil7ZwmxQ">
    <mxGraphModel dx="183" dy="732" grid="1" gridSize="10" guides="1" tooltips="1" connect="1" arrows="1" fold="1" page="1" pageScale="1" pageWidth="827" pageHeight="1169" background="none" math="0" shadow="1">
      <root>
        <mxCell id="0" />
        <mxCell id="1" parent="0" />
        <mxCell id="shnlzeoLwmylmNGCK-iD-4" value="Producer" style="rounded=1;whiteSpace=wrap;html=1;fillColor=#dae8fc;strokeColor=#6c8ebf;sketch=1;curveFitting=1;jiggle=2;" parent="1" vertex="1">
          <mxGeometry x="1180" y="90" width="80" height="40" as="geometry" />
        </mxCell>
        <mxCell id="9jFAXQZW3_Cc163_eQy1-25" style="edgeStyle=orthogonalEdgeStyle;rounded=0;orthogonalLoop=1;jettySize=auto;html=1;entryX=0.5;entryY=0;entryDx=0;entryDy=0;endArrow=none;endFill=0;strokeWidth=2;fillColor=#d5e8d4;strokeColor=#82b366;" edge="1" parent="1" source="9jFAXQZW3_Cc163_eQy1-20" target="9jFAXQZW3_Cc163_eQy1-21">
          <mxGeometry relative="1" as="geometry" />
        </mxCell>
        <mxCell id="9jFAXQZW3_Cc163_eQy1-34" value="Message Protocol" style="edgeLabel;html=1;align=center;verticalAlign=middle;resizable=0;points=[];labelBackgroundColor=none;" vertex="1" connectable="0" parent="9jFAXQZW3_Cc163_eQy1-25">
          <mxGeometry relative="1" as="geometry">
            <mxPoint x="50" y="-5" as="offset" />
          </mxGeometry>
        </mxCell>
        <mxCell id="9jFAXQZW3_Cc163_eQy1-20" value="Consumer" style="rounded=1;whiteSpace=wrap;html=1;fillColor=#d5e8d4;strokeColor=#82b366;sketch=1;curveFitting=1;jiggle=2;gradientColor=#97d077;" vertex="1" parent="1">
          <mxGeometry x="980" y="90" width="80" height="40" as="geometry" />
        </mxCell>
        <mxCell id="9jFAXQZW3_Cc163_eQy1-33" style="edgeStyle=orthogonalEdgeStyle;rounded=0;orthogonalLoop=1;jettySize=auto;html=1;entryX=0;entryY=0.5;entryDx=0;entryDy=0;fillColor=#d5e8d4;strokeColor=#82b366;strokeWidth=2;endArrow=none;endFill=0;" edge="1" parent="1" source="9jFAXQZW3_Cc163_eQy1-21" target="9jFAXQZW3_Cc163_eQy1-23">
          <mxGeometry relative="1" as="geometry">
            <Array as="points">
              <mxPoint x="1020" y="380" />
            </Array>
          </mxGeometry>
        </mxCell>
        <mxCell id="9jFAXQZW3_Cc163_eQy1-36" value="Message Transport Protocol" style="edgeLabel;html=1;align=center;verticalAlign=middle;resizable=0;points=[];labelBackgroundColor=none;" vertex="1" connectable="0" parent="9jFAXQZW3_Cc163_eQy1-33">
          <mxGeometry x="-0.2375" y="1" relative="1" as="geometry">
            <mxPoint x="99" y="11" as="offset" />
          </mxGeometry>
        </mxCell>
        <mxCell id="9jFAXQZW3_Cc163_eQy1-21" value="Security Servert" style="rounded=1;whiteSpace=wrap;html=1;fillColor=#d5e8d4;strokeColor=#82b366;sketch=1;curveFitting=1;jiggle=2;gradientColor=#97d077;" vertex="1" parent="1">
          <mxGeometry x="980" y="220" width="80" height="40" as="geometry" />
        </mxCell>
        <mxCell id="9jFAXQZW3_Cc163_eQy1-30" style="edgeStyle=orthogonalEdgeStyle;rounded=0;orthogonalLoop=1;jettySize=auto;html=1;entryX=0.5;entryY=1;entryDx=0;entryDy=0;endArrow=none;endFill=0;strokeWidth=2;fillColor=#d5e8d4;strokeColor=#82b366;" edge="1" parent="1" source="9jFAXQZW3_Cc163_eQy1-22" target="shnlzeoLwmylmNGCK-iD-4">
          <mxGeometry relative="1" as="geometry" />
        </mxCell>
        <mxCell id="9jFAXQZW3_Cc163_eQy1-35" value="Message Protocol" style="edgeLabel;html=1;align=center;verticalAlign=middle;resizable=0;points=[];labelBackgroundColor=none;" vertex="1" connectable="0" parent="9jFAXQZW3_Cc163_eQy1-30">
          <mxGeometry x="0.1556" relative="1" as="geometry">
            <mxPoint x="59" y="2" as="offset" />
          </mxGeometry>
        </mxCell>
        <mxCell id="9jFAXQZW3_Cc163_eQy1-32" style="edgeStyle=orthogonalEdgeStyle;rounded=0;orthogonalLoop=1;jettySize=auto;html=1;entryX=1;entryY=0.5;entryDx=0;entryDy=0;endArrow=none;endFill=0;strokeWidth=2;fillColor=#d5e8d4;strokeColor=#82b366;" edge="1" parent="1" source="9jFAXQZW3_Cc163_eQy1-22" target="9jFAXQZW3_Cc163_eQy1-21">
          <mxGeometry relative="1" as="geometry" />
        </mxCell>
        <mxCell id="9jFAXQZW3_Cc163_eQy1-37" value="OCSP Protocol" style="edgeLabel;html=1;align=center;verticalAlign=middle;resizable=0;points=[];fontColor=default;labelBackgroundColor=none;" vertex="1" connectable="0" parent="9jFAXQZW3_Cc163_eQy1-32">
          <mxGeometry x="0.2099" y="-3" relative="1" as="geometry">
            <mxPoint x="8" y="13" as="offset" />
          </mxGeometry>
        </mxCell>
        <mxCell id="9jFAXQZW3_Cc163_eQy1-22" value="Security Server" style="rounded=1;whiteSpace=wrap;html=1;fillColor=#dae8fc;strokeColor=#6c8ebf;sketch=1;curveFitting=1;jiggle=2;" vertex="1" parent="1">
          <mxGeometry x="1180" y="220" width="80" height="40" as="geometry" />
        </mxCell>
        <mxCell id="9jFAXQZW3_Cc163_eQy1-29" style="edgeStyle=orthogonalEdgeStyle;rounded=0;orthogonalLoop=1;jettySize=auto;html=1;entryX=0.5;entryY=1;entryDx=0;entryDy=0;endArrow=none;endFill=0;strokeWidth=2;fillColor=#d5e8d4;strokeColor=#82b366;" edge="1" parent="1" source="9jFAXQZW3_Cc163_eQy1-23" target="9jFAXQZW3_Cc163_eQy1-22">
          <mxGeometry relative="1" as="geometry" />
        </mxCell>
        <mxCell id="9jFAXQZW3_Cc163_eQy1-23" value="Central Server" style="rounded=1;whiteSpace=wrap;html=1;fillColor=#ffe6cc;strokeColor=#d79b00;sketch=1;curveFitting=1;jiggle=2;" vertex="1" parent="1">
          <mxGeometry x="1080" y="360" width="80" height="40" as="geometry" />
        </mxCell>
      </root>
    </mxGraphModel>
  </diagram>
</mxfile>
